# Blender 4.4.0
# www.blender.org
mtllib working_spaceship.mtl
o Cube
v 1.000000 -0.056082 -0.140128
v 1.000000 -0.056082 0.201044
v 1.000000 0.056082 -0.140128
v 1.000000 0.056082 0.201044
v -1.000000 -1.000000 -0.140128
v -1.000000 -1.000000 0.201044
v -1.000000 1.000000 -0.140128
v -1.000000 1.000000 0.201044
v -1.000000 -1.000000 -0.140128
v -1.000000 -1.000000 1.859872
v -0.084162 0.000000 0.201044
v 1.000000 0.000000 -0.140128
v -0.084162 0.000000 -0.140128
v 1.000000 0.000000 0.201044
vn -0.0000 -0.0000 -1.0000
vn 0.4268 0.9043 -0.0000
vn -0.7375 0.6754 -0.0000
vn -0.0000 -0.0000 1.0000
vn 1.0000 -0.0000 -0.0000
vn 0.4268 -0.9043 -0.0000
vn -0.0000 1.0000 -0.0000
vn -0.7375 -0.6754 -0.0000
s 1
usemtl Material
f 13//1 3//1 12//1
f 3//2 8//2 4//2
f 13//3 6//3 11//3
f 11//4 4//4 8//4
f 12//5 4//5 14//5
f 5//6 2//6 6//6
s 0
f 5//7 10//7 9//7
s 1
f 1//5 14//5 2//5
f 2//4 11//4 6//4
f 7//8 11//8 8//8
f 1//1 13//1 12//1
f 13//1 7//1 3//1
f 3//2 7//2 8//2
f 13//3 5//3 6//3
f 11//4 14//4 4//4
f 12//5 3//5 4//5
f 5//6 1//6 2//6
f 1//5 12//5 14//5
f 2//4 14//4 11//4
f 7//8 13//8 11//8
f 1//1 5//1 13//1
